<?xml version="1.0" standalone="no"?>
<!DOCTYPE svg PUBLIC "-//W3C//DTD SVG 20010904//EN"
 "http://www.w3.org/TR/2001/REC-SVG-20010904/DTD/svg10.dtd">
<svg version="1.0" xmlns="http://www.w3.org/2000/svg"
 width="96.000000pt" height="96.000000pt" viewBox="0 0 96.000000 96.000000"
 preserveAspectRatio="xMidYMid meet">
<metadata>
Created by potrace 1.11, written by Peter Selinger 2001-2013
</metadata>
<g transform="translate(0.000000,96.000000) scale(0.100000,-0.100000)"
fill="#000000" stroke="none">
<path d="M81 952 c3 -20 -2 -32 -11 -27 -14 9 -12 -8 3 -24 8 -10 8 -12 0 -7
-6 3 -14 2 -18 -4 -3 -5 -1 -10 5 -10 6 0 8 -5 4 -12 -10 -16 -13 -48 -4 -48
9 0 6 -38 -5 -47 -4 -5 -5 -2 -1 5 4 6 3 12 -2 12 -15 0 -22 -28 -9 -34 8 -3
6 -5 -3 -5 -12 -1 -15 -13 -13 -55 0 -30 4 -59 7 -65 4 -5 -3 -15 -14 -21 -16
-8 -20 -21 -20 -58 0 -27 7 -57 16 -70 9 -13 13 -30 10 -38 -3 -9 -1 -12 4 -9
6 3 10 1 10 -4 0 -6 -5 -11 -12 -11 -6 0 -3 -9 7 -20 18 -20 18 -21 -1 -15
-19 7 -19 6 0 -9 10 -8 23 -13 29 -9 6 3 7 1 3 -6 -4 -6 -13 -9 -19 -5 -7 3
-5 0 3 -8 17 -15 20 -40 5 -50 -6 -5 -5 -8 4 -8 8 0 11 -7 8 -20 -3 -11 0 -20
6 -20 6 0 8 -3 4 -6 -3 -4 0 -13 8 -21 10 -10 12 -20 5 -38 -6 -16 -6 -27 2
-31 7 -5 8 -3 3 6 -5 9 -4 11 4 6 9 -6 9 -11 0 -22 -6 -8 -8 -14 -3 -14 5 0
18 -13 29 -28 10 -15 13 -22 4 -15 -12 10 -15 8 -15 -8 0 -13 5 -18 15 -14 12
5 12 3 0 -12 -8 -9 -9 -14 -4 -11 6 3 17 -1 25 -10 13 -14 12 -15 -3 -9 -9 3
-17 3 -17 -2 0 -5 11 -12 25 -15 42 -11 636 -6 630 5 -4 5 -2 9 4 9 6 0 8 7 5
15 -4 8 1 17 10 21 14 5 14 9 4 22 -10 12 -10 14 0 8 7 -4 12 -2 12 4 0 6 4 9
9 5 5 -3 13 0 17 6 5 8 3 9 -5 5 -15 -10 -11 25 4 36 6 5 6 8 -1 8 -7 0 -15 7
-18 16 -3 9 -2 12 5 9 6 -4 10 -1 8 6 -3 27 1 40 11 34 6 -3 10 -1 10 5 0 6 6
8 13 5 6 -4 4 0 -6 8 -17 14 -17 15 0 22 12 5 14 9 6 12 -7 3 -13 9 -13 14 0
6 4 8 9 4 5 -3 13 0 17 6 4 8 3 9 -4 5 -7 -4 -12 -4 -13 1 0 4 -2 15 -4 24 -1
9 2 16 9 15 6 0 13 4 14 9 2 6 8 15 13 22 6 6 6 14 1 17 -5 3 -8 13 -7 23 3
28 16 53 25 48 4 -2 6 6 5 18 -1 12 -3 22 -4 22 -2 0 -4 8 -6 18 -2 9 1 15 6
11 5 -3 6 -10 3 -16 -4 -6 -2 -8 4 -4 7 4 8 17 1 38 -5 17 -6 34 -4 37 3 2 5
-1 5 -7 0 -7 7 -12 15 -12 12 0 15 14 15 65 0 51 -3 65 -15 65 -8 0 -15 5 -15
11 0 5 -4 7 -10 4 -6 -4 -7 1 -3 11 4 11 2 15 -4 11 -6 -4 -14 0 -17 9 -4 10
-2 13 7 8 9 -5 9 -4 0 6 -9 9 -9 19 -2 32 12 22 6 34 -10 23 -6 -3 -8 -11 -5
-17 5 -7 2 -8 -5 -3 -9 5 -6 14 11 32 21 23 22 25 5 34 -10 6 -14 15 -10 22
17 27 13 56 -9 71 -20 14 -71 16 -410 16 -213 -1 -387 -4 -387 -8z m809 -33
c0 -5 -4 -9 -8 -9 -5 0 -9 7 -9 15 0 8 4 12 9 9 4 -3 8 -9 8 -15z"/>
</g>
</svg>
